<svg width="171" height="52" viewBox="0 0 171 52" fill="none" xmlns="http://www.w3.org/2000/svg">
<path d="M133.367 42.9074H125.313C124.982 42.9074 124.711 42.6369 124.711 42.3053V40.4903C124.711 40.4292 124.659 40.3769 124.598 40.3769H122.826C122.765 40.3769 122.713 40.4292 122.713 40.4903V42.7591C122.713 43.7713 123.533 44.5915 124.545 44.5915H133.367C133.428 44.5915 133.481 44.5392 133.481 44.4781V43.0121C133.481 42.951 133.428 42.8987 133.367 42.8987V42.9074Z" fill="#1A335B"/>
<path d="M122.573 39.1465H129.737C129.798 39.1465 129.851 39.0942 129.851 39.0331V37.5584C129.851 37.4973 129.798 37.445 129.737 37.445H124.493V33.3612H129.493C129.554 33.3612 129.606 33.3089 129.606 33.2478V31.7731C129.606 31.712 129.554 31.6597 129.493 31.6597H122.564C122.503 31.6597 122.451 31.712 122.451 31.7731V39.0418C122.451 39.1029 122.503 39.1552 122.564 39.1552L122.573 39.1465Z" fill="#1A335B"/>
<path d="M134.493 34.705H133.35V31.7644C133.35 31.7033 133.297 31.6509 133.236 31.6509H131.465C131.404 31.6509 131.351 31.7033 131.351 31.7644V40.2547C131.351 40.3158 131.404 40.3681 131.465 40.3681H133.236C133.297 40.3681 133.35 40.3158 133.35 40.2547V36.3629H134.493C134.554 36.3629 134.606 36.3106 134.606 36.2495V34.8097C134.606 34.7486 134.554 34.6963 134.493 34.6963V34.705Z" fill="#1A335B"/>
<path d="M13.5602 40.0889H18.3332V44.5042C18.3332 44.5653 18.3856 44.6177 18.4467 44.6177H20.218C20.2791 44.6177 20.3315 44.5653 20.3315 44.5042V40.0889H25.0958C25.1569 40.0889 25.2093 40.0366 25.2093 39.9755V38.5095C25.2093 38.4484 25.1569 38.3961 25.0958 38.3961H23.5426C24.0225 37.2094 24.2669 35.8481 24.2669 34.3472V31.7556C24.2669 31.6946 24.2145 31.6422 24.1534 31.6422H14.2495C14.1884 31.6422 14.1361 31.6946 14.1361 31.7556V33.2391C14.1361 33.3001 14.1884 33.3525 14.2495 33.3525H22.2774V34.3822C22.2774 35.8045 21.9894 37.1483 21.4048 38.3874H13.5602C13.4991 38.3874 13.4467 38.4397 13.4467 38.5008V39.9667C13.4467 40.0278 13.4991 40.0802 13.5602 40.0802V40.0889Z" fill="#1A335B"/>
<path d="M83.9348 42.3053V40.4903C83.9348 40.4292 83.8824 40.3769 83.8213 40.3769H82.05C81.9889 40.3769 81.9365 40.4292 81.9365 40.4903V42.7591C81.9365 43.7713 82.7568 44.5915 83.769 44.5915H92.5909C92.652 44.5915 92.7043 44.5392 92.7043 44.4781V43.0121C92.7043 42.951 92.652 42.8987 92.5909 42.8987H84.5368C84.2053 42.8987 83.9348 42.6282 83.9348 42.2966V42.3053Z" fill="#1A335B"/>
<path d="M83.5334 36.6945C83.1146 37.1483 82.4426 37.4886 81.3606 37.8027C81.317 37.8202 81.2821 37.8638 81.2821 37.9074V39.4519C81.2821 39.4519 81.3083 39.513 81.3257 39.5392C81.3432 39.5566 81.3694 39.5654 81.3955 39.5654C81.3955 39.5654 81.4043 39.5654 81.413 39.5654C82.1809 39.4345 82.7481 39.225 83.2367 39.0156C83.8475 38.7538 84.3275 38.4223 84.8597 37.8987C84.947 37.8114 85.0255 37.7155 85.1128 37.602C85.1913 37.7155 85.2786 37.8114 85.3658 37.8987C85.8981 38.4223 86.378 38.7626 86.9889 39.0156C87.4862 39.225 88.0447 39.4432 88.8126 39.5654C88.8475 39.5654 88.8824 39.5654 88.8998 39.5392C88.926 39.5217 88.9435 39.4868 88.9435 39.4519V37.89C88.9435 37.8376 88.9086 37.794 88.8649 37.7853C87.7916 37.4799 87.1197 37.1483 86.7009 36.6858C86.1686 36.1099 86.125 35.1937 86.125 34.0593V33.3089H88.8649C88.926 33.3089 88.9784 33.2565 88.9784 33.1954V31.7556C88.9784 31.6946 88.926 31.6422 88.8649 31.6422H81.4043C81.3432 31.6422 81.2908 31.6946 81.2908 31.7556V33.1954C81.2908 33.2565 81.3432 33.3089 81.4043 33.3089H84.118V34.0593C84.118 35.1937 84.0744 36.1099 83.5421 36.6858L83.5334 36.6945Z" fill="#1A335B"/>
<path d="M90.7061 31.6509H92.4775C92.5385 31.6509 92.5909 31.7033 92.5909 31.7644V40.2896C92.5909 40.3507 92.5385 40.403 92.4775 40.403H90.7061C90.645 40.403 90.5927 40.3507 90.5927 40.2896V31.7644C90.5927 31.7033 90.645 31.6509 90.7061 31.6509Z" fill="#1A335B"/>
<path d="M67.8354 40.0889H72.6085V44.5042C72.6085 44.5653 72.6609 44.6177 72.7219 44.6177H74.4933C74.5544 44.6177 74.6067 44.5653 74.6067 44.5042V40.0889H79.3711C79.4322 40.0889 79.4845 40.0366 79.4845 39.9755V38.5095C79.4845 38.4484 79.4322 38.3961 79.3711 38.3961H77.8179C78.2978 37.2094 78.5421 35.8481 78.5421 34.3472V31.7556C78.5421 31.6946 78.4898 31.6422 78.4287 31.6422H68.5248C68.4637 31.6422 68.4113 31.6946 68.4113 31.7556V33.2391C68.4113 33.3001 68.4637 33.3525 68.5248 33.3525H76.5526V34.3822C76.5526 35.8045 76.2647 37.1483 75.68 38.3874H67.8354C67.7743 38.3874 67.722 38.4397 67.722 38.5008V39.9667C67.722 40.0278 67.7743 40.0802 67.8354 40.0802V40.0889Z" fill="#1A335B"/>
<path d="M94.6502 37.7591H106.186C106.247 37.7591 106.299 37.8115 106.299 37.8725V39.3385C106.299 39.3996 106.247 39.4519 106.186 39.4519H94.6502C94.5891 39.4519 94.5367 39.3996 94.5367 39.3385V37.8725C94.5367 37.8115 94.5891 37.7591 94.6502 37.7591Z" fill="#1A335B"/>
<path d="M95.2436 33.2304H96.5612C96.4652 33.2653 96.3867 33.3089 96.3169 33.3438C95.994 33.527 95.7584 33.7365 95.5839 33.9808C95.4006 34.2426 95.3046 34.5741 95.3046 34.9406C95.3046 35.3071 95.4006 35.6213 95.5839 35.8918C95.7584 36.1448 96.0202 36.363 96.343 36.52C96.6572 36.6771 97.076 36.808 97.5472 36.904C98.5332 37.1047 99.9556 37.1221 100.427 37.1221H100.462C100.889 37.1221 102.364 37.1047 103.376 36.904C103.847 36.808 104.266 36.6771 104.58 36.52C104.903 36.363 105.165 36.1448 105.339 35.8918C105.523 35.63 105.619 35.3071 105.619 34.9406C105.619 34.5741 105.523 34.2426 105.339 33.9808C105.165 33.7365 104.929 33.527 104.606 33.3438C104.537 33.3089 104.458 33.2653 104.362 33.2304H105.636C105.697 33.2304 105.75 33.178 105.75 33.1169V31.7469C105.75 31.6859 105.697 31.6335 105.636 31.6335H101.465V30.8569C101.465 30.7958 101.413 30.7435 101.352 30.7435H99.528C99.4669 30.7435 99.4146 30.7958 99.4146 30.8569V31.6335H95.2436C95.1825 31.6335 95.1301 31.6859 95.1301 31.7469V33.1169C95.1301 33.178 95.1825 33.2304 95.2436 33.2304ZM98.3762 34.1466C98.8997 34.0419 99.2837 33.9721 100.462 33.9721C101.64 33.9721 102.024 34.0331 102.547 34.1466C103.106 34.26 103.446 34.5305 103.446 34.8534C103.446 35.246 102.957 35.4031 102.661 35.4642C102.259 35.5515 101.805 35.6387 100.462 35.6387C99.1179 35.6387 98.6641 35.5427 98.2627 35.4642C97.9661 35.4031 97.4774 35.246 97.4774 34.8534C97.4774 34.5305 97.8177 34.26 98.3762 34.1466Z" fill="#1A335B"/>
<path d="M104.912 40.6736C104.615 40.499 104.205 40.3681 103.708 40.2722C103.202 40.1762 102.704 40.1151 102.233 40.0889C101.753 40.0627 101.16 40.0453 100.462 40.0453C99.7636 40.0453 99.1876 40.0627 98.699 40.0889C98.2103 40.1238 97.7042 40.1849 97.2069 40.2896C96.7095 40.3856 96.2994 40.5252 96.0027 40.6997C95.706 40.8655 95.453 41.1011 95.2697 41.3978C95.0865 41.6858 94.9905 42.0435 94.9905 42.4536C94.9905 42.8638 95.0865 43.2041 95.2697 43.492C95.453 43.78 95.706 44.0156 96.0027 44.1814C96.3081 44.3472 96.7095 44.4781 97.2069 44.574C97.7042 44.67 98.2103 44.7311 98.6903 44.766C99.1789 44.8009 99.7723 44.8096 100.462 44.8096C101.038 44.8096 101.544 44.8096 101.945 44.7835C102.355 44.766 102.791 44.7311 103.245 44.6788C103.699 44.6264 104.074 44.5479 104.371 44.4344C104.668 44.3297 104.947 44.1814 105.2 44.0069C105.444 43.8411 105.627 43.6229 105.75 43.3699C105.872 43.1081 105.933 42.8027 105.933 42.4536C105.933 42.0348 105.837 41.6683 105.654 41.3716C105.462 41.0749 105.217 40.8393 104.929 40.6736H104.912ZM103.062 43.0296C102.783 43.0732 101.945 43.2041 100.462 43.2041C99.432 43.2041 98.5681 43.143 97.8351 43.0296C97.5385 42.9859 97.0323 42.8376 97.0323 42.4362C97.0323 42.0348 97.5472 41.8865 97.8526 41.8341C98.5856 41.7119 99.4582 41.6509 100.462 41.6509C101.465 41.6509 102.32 41.7119 103.053 41.8341C103.359 41.8865 103.873 42.0348 103.873 42.4362C103.873 42.8376 103.359 42.9772 103.062 43.0296Z" fill="#1A335B"/>
<path d="M42.7135 44.5915H51.9368C51.9979 44.5915 52.0502 44.5391 52.0502 44.478V43.1779C52.0502 43.1168 51.9979 43.0644 51.9368 43.0644H43.3156C43.0713 43.0644 42.8793 42.8638 42.8793 42.6282V42.4187H51.7972C51.8583 42.4187 51.9106 42.3664 51.9106 42.3053V38.7277H41.0032C40.9421 38.7277 40.8898 38.78 40.8898 38.8411V40.15C40.8898 40.2111 40.9421 40.2634 41.0032 40.2634H49.9211V40.9091H41.0032C40.9421 40.9091 40.8898 40.9615 40.8898 41.0226V42.759C40.8898 43.7712 41.71 44.5915 42.7222 44.5915H42.7135Z" fill="#1A335B"/>
<path d="M40.9858 37.986H48.045C48.1061 37.986 48.1585 37.9336 48.1585 37.8725V31.7644C48.1585 31.7033 48.1061 31.6509 48.045 31.6509H46.2737C46.2126 31.6509 46.1602 31.7033 46.1602 31.7644V33.4485H42.8706V31.7644C42.8706 31.7033 42.8182 31.6509 42.7571 31.6509H40.9858C40.9247 31.6509 40.8723 31.7033 40.8723 31.7644V37.8725C40.8723 37.9336 40.9247 37.986 40.9858 37.986ZM42.8706 34.9668H46.1602V36.4415H42.8706V34.9668Z" fill="#1A335B"/>
<path d="M51.7884 31.6509H50.0171C49.956 31.6509 49.9036 31.7033 49.9036 31.7644V37.89C49.9036 37.9511 49.956 38.0034 50.0171 38.0034H51.7884C51.8495 38.0034 51.9019 37.9511 51.9019 37.89V35.6823H53.045C53.106 35.6823 53.1584 35.63 53.1584 35.5689V34.0855C53.1584 34.0244 53.106 33.972 53.045 33.972H51.9019V31.7644C51.9019 31.7033 51.8495 31.6509 51.7884 31.6509Z" fill="#1A335B"/>
<path d="M54.4847 38.4048H66.0204C66.0815 38.4048 66.1338 38.4572 66.1338 38.5183V39.9842C66.1338 40.0453 66.0815 40.0977 66.0204 40.0977H54.4847C54.4236 40.0977 54.3713 40.0453 54.3713 39.9842V38.5183C54.3713 38.4572 54.4236 38.4048 54.4847 38.4048Z" fill="#1A335B"/>
<path d="M63.708 44.5915H65.4794C65.5405 44.5915 65.5928 44.5391 65.5928 44.4781V40.9179C65.5928 40.8568 65.5405 40.8044 65.4794 40.8044H55.017C54.9559 40.8044 54.9036 40.8568 54.9036 40.9179V42.4013C54.9036 42.4624 54.9559 42.5147 55.017 42.5147H63.5946V44.4781C63.5946 44.5391 63.6469 44.5915 63.708 44.5915Z" fill="#1A335B"/>
<path d="M65.4969 33.1954C65.5579 33.1954 65.6103 33.1431 65.6103 33.082V31.7644C65.6103 31.7033 65.5579 31.6509 65.4969 31.6509H55.1043C55.0432 31.6509 54.9908 31.7033 54.9908 31.7644V37.5497C54.9908 37.6108 55.0432 37.6631 55.1043 37.6631H65.4881C65.5492 37.6631 65.6016 37.6108 65.6016 37.5497V36.2495C65.6016 36.1884 65.5492 36.1361 65.4881 36.1361H56.9891V35.4205H65.4358C65.4969 35.4205 65.5492 35.3682 65.5492 35.3071V33.9982C65.5492 33.9371 65.4969 33.8848 65.4358 33.8848H56.9891V33.1867H65.4969V33.1954Z" fill="#1A335B"/>
<path d="M11.911 44.4868V43.0209C11.911 42.9598 11.8586 42.9074 11.7975 42.9074H3.65623C3.32465 42.9074 3.05415 42.6369 3.05415 42.3053V40.4903C3.05415 40.4292 3.00179 40.3769 2.94071 40.3769H1.16935C1.10826 40.3769 1.05591 40.4292 1.05591 40.4903V42.7591C1.05591 43.7713 1.87615 44.5915 2.88835 44.5915H11.7888C11.8499 44.5915 11.9022 44.5392 11.9022 44.4781L11.911 44.4868Z" fill="#1A335B"/>
<path d="M3.9616 39.4869C5.09597 39.4869 6.16926 38.9982 6.92842 38.1431H9.79052V40.2809C9.79052 40.342 9.84288 40.3944 9.90396 40.3944H11.7364L11.7888 40.342V31.7644C11.7888 31.7033 11.7364 31.651 11.6753 31.651H9.90396C9.84288 31.651 9.79052 31.7033 9.79052 31.7644V33.1344H7.11166L7.08549 33.1082C6.23034 32.0175 4.904 31.459 3.53403 31.6074C1.71031 31.7993 0.235632 33.2653 0.034936 35.089C-0.087227 36.2321 0.26181 37.3316 1.02097 38.178C1.7714 39.0157 2.84469 39.4956 3.97033 39.4956L3.9616 39.4869ZM7.82719 36.3717C7.88827 36.0925 7.91445 35.8133 7.91445 35.534C7.91445 35.3421 7.897 35.1326 7.86209 34.9058L7.84464 34.8185H9.7818V36.459H7.80974L7.82719 36.363V36.3717ZM3.9616 33.4398C5.12215 33.4398 6.05583 34.3822 6.05583 35.534C6.05583 36.6858 5.11343 37.6282 3.9616 37.6282C2.80978 37.6282 1.86738 36.6858 1.86738 35.534C1.86738 34.3822 2.80978 33.4398 3.9616 33.4398Z" fill="#1A335B"/>
<path d="M115.191 44.5915H116.901C116.962 44.5915 117.015 44.5391 117.015 44.4781V38.3524H118.219V44.4781C118.219 44.5391 118.271 44.5915 118.332 44.5915H120.043C120.104 44.5915 120.156 44.5391 120.156 44.4781V31.7556C120.156 31.6946 120.104 31.6422 120.043 31.6422H118.332C118.271 31.6422 118.219 31.6946 118.219 31.7556V36.5811H117.015V31.7556C117.015 31.6946 116.962 31.6422 116.901 31.6422H115.191C115.13 31.6422 115.078 31.6946 115.078 31.7556V44.4781C115.078 44.5391 115.13 44.5915 115.191 44.5915Z" fill="#1A335B"/>
<path d="M114.057 43.8149C114.057 43.8149 114.1 43.7625 114.1 43.7276V42.1657C114.1 42.1657 114.074 42.0871 114.039 42.0697C112.861 41.4851 112.032 40.8132 112.032 37.4624V33.3438H113.865C113.926 33.3438 113.978 33.2914 113.978 33.2303V31.7556C113.978 31.6946 113.926 31.6422 113.865 31.6422H108.271C108.21 31.6422 108.158 31.6946 108.158 31.7556V33.2303C108.158 33.2914 108.21 33.3438 108.271 33.3438H110.113V37.4624C110.113 40.8044 109.31 41.4589 108.088 42.0784C108.053 42.0959 108.027 42.1395 108.027 42.1744V43.7276C108.027 43.7276 108.044 43.7887 108.071 43.8149C108.088 43.8323 108.114 43.8411 108.14 43.8411C108.14 43.8411 108.149 43.8411 108.158 43.8411C109.336 43.6491 110.479 42.759 110.994 41.9737L111.055 41.8777L111.116 41.9737C111.613 42.7329 112.756 43.6142 113.969 43.8411C114.004 43.8411 114.039 43.8411 114.065 43.8149H114.057Z" fill="#1A335B"/>
<path d="M33.5774 44.5915H35.2877C35.3488 44.5915 35.4011 44.5391 35.4011 44.4781V38.3524H36.614V44.4781C36.614 44.5391 36.6664 44.5915 36.7275 44.5915H38.4378C38.4989 44.5915 38.5512 44.5391 38.5512 44.4781V31.7556C38.5512 31.6946 38.4989 31.6422 38.4378 31.6422H36.7275C36.6664 31.6422 36.614 31.6946 36.614 31.7556V36.5811H35.4011V31.7556C35.4011 31.6946 35.3488 31.6422 35.2877 31.6422H33.5774C33.5163 31.6422 33.464 31.6946 33.464 31.7556V44.4781C33.464 44.5391 33.5163 44.5915 33.5774 44.5915Z" fill="#1A335B"/>
<path d="M26.588 44.6002C30.1394 43.492 32.3471 40.2722 32.3471 36.1797V31.7644C32.3471 31.7033 32.2947 31.6509 32.2337 31.6509H26.684C26.6229 31.6509 26.5705 31.7033 26.5705 31.7644V33.2478C26.5705 33.3089 26.6229 33.3612 26.684 33.3612H30.3663V36.3542C30.3663 39.8359 28.2895 41.869 26.5094 42.5496C26.4658 42.5671 26.4396 42.6107 26.4396 42.6543V44.4955C26.4396 44.4955 26.4571 44.5653 26.4833 44.5828C26.5007 44.6002 26.5269 44.6089 26.5531 44.6089C26.5618 44.6089 26.5793 44.6089 26.588 44.6089V44.6002Z" fill="#1A335B"/>
<path d="M26.5006 8.22185L34.6594 19.0769V8.22185C34.6594 8.04733 34.799 7.90771 34.9735 7.90771H38.6907C38.8653 7.90771 39.0049 8.04733 39.0049 8.22185V25.6563C39.0049 25.8308 38.8653 25.9704 38.6907 25.9704H35.052C34.799 25.9704 34.5721 25.8569 34.415 25.6563L25.4186 13.6843V25.6563C25.4186 25.8308 25.279 25.9704 25.1045 25.9704H21.4658C21.2127 25.9704 20.9858 25.8569 20.8288 25.6563L11.8323 13.6843V25.6563C11.8323 25.8308 11.6927 25.9704 11.5182 25.9704H7.80095C7.62643 25.9704 7.48682 25.8308 7.48682 25.6563V8.22185C7.48682 8.04733 7.62643 7.90771 7.80095 7.90771H12.2774C12.5304 7.90771 12.7573 8.02115 12.9143 8.22185L21.0731 19.0769V8.22185C21.0731 8.04733 21.2127 7.90771 21.3872 7.90771H25.8636C26.1167 7.90771 26.3435 8.02115 26.5006 8.22185Z" fill="#1A335B"/>
<path d="M50.7675 7.61975C45.6192 7.61975 41.4482 11.7907 41.4482 16.939C41.4482 22.0873 45.6192 26.2583 50.7675 26.2583C55.9158 26.2583 60.0868 22.0873 60.0868 16.939C60.0868 11.7907 55.9158 7.61975 50.7675 7.61975ZM50.7675 21.9041C48.0275 21.9041 45.8024 19.679 45.8024 16.939C45.8024 14.1991 48.0275 11.974 50.7675 11.974C53.5074 11.974 55.7325 14.1991 55.7325 16.939C55.7325 19.679 53.5074 21.9041 50.7675 21.9041Z" fill="#1A335B"/>
<path d="M87.4338 7.61975C82.2855 7.61975 78.1145 11.7907 78.1145 16.939C78.1145 22.0873 82.2855 26.2583 87.4338 26.2583C92.5821 26.2583 96.7531 22.0873 96.7531 16.939C96.7531 11.7907 92.5821 7.61975 87.4338 7.61975ZM87.4338 21.9041C84.6939 21.9041 82.4687 19.679 82.4687 16.939C82.4687 14.1991 84.6939 11.974 87.4338 11.974C90.1737 11.974 92.3988 14.1991 92.3988 16.939C92.3988 19.679 90.1737 21.9041 87.4338 21.9041Z" fill="#1A335B"/>
<path d="M4.0401 7.89899H0.314133C0.140642 7.89899 0 8.03963 0 8.21312V25.6562C0 25.8297 0.140642 25.9704 0.314133 25.9704H4.0401C4.2136 25.9704 4.35424 25.8297 4.35424 25.6562V8.21312C4.35424 8.03963 4.2136 7.89899 4.0401 7.89899Z" fill="#1A335B"/>
<path d="M118.097 7.89899H114.371C114.197 7.89899 114.057 8.03963 114.057 8.21312V25.6562C114.057 25.8297 114.197 25.9704 114.371 25.9704H118.097C118.27 25.9704 118.411 25.8297 118.411 25.6562V8.21312C118.411 8.03963 118.27 7.89899 118.097 7.89899Z" fill="#1A335B"/>
<path d="M76.3519 13.693C76.3519 10.4906 73.7603 7.89899 70.5579 7.89899H62.8442C62.6696 7.89899 62.53 8.0386 62.53 8.21312V25.6475C62.53 25.822 62.6696 25.9617 62.8442 25.9617H66.5614C66.7359 25.9617 66.8755 25.822 66.8755 25.6475V19.4783H70.5579C73.7603 19.4783 76.3519 16.8867 76.3519 13.6843V13.693ZM69.6853 16.0141H66.8843V11.3806H69.6853C70.968 11.3806 72.0064 12.419 72.0064 13.7017C72.0064 14.9844 70.968 16.0228 69.6853 16.0228V16.0141Z" fill="#1A335B"/>
<path d="M110.924 25.6563V22.8116C110.924 22.6371 110.784 22.4975 110.61 22.4975H103.507V8.22185C103.507 8.04733 103.367 7.90771 103.193 7.90771H99.4756C99.3011 7.90771 99.1614 8.04733 99.1614 8.22185V25.6563C99.1614 25.8308 99.3011 25.9704 99.4756 25.9704H110.619C110.793 25.9704 110.933 25.8308 110.933 25.6563H110.924Z" fill="#1A335B"/>
<path d="M120.749 22.4887C120.627 22.6022 120.61 22.7941 120.715 22.925C121.36 23.7278 123.742 26.302 127.591 26.302C132.145 26.302 134.606 23.3177 134.606 20.8308C134.606 18.3439 133.751 16.6685 129.99 15.3596C126.221 14.0508 125.741 13.5796 125.741 12.7506C125.741 11.5115 128.245 10.0368 131.177 12.8204C131.308 12.9426 131.5 12.9426 131.622 12.8204L133.812 10.5953C133.926 10.4819 133.934 10.3073 133.838 10.1764C133.323 9.51327 131.5 7.60229 127.582 7.60229C122.835 7.60229 121.421 10.5778 121.421 12.4975C121.421 14.4172 122.338 16.3719 125.714 17.7505C129.083 19.1292 130.086 19.3125 130.121 20.5254C130.156 21.7557 127.878 24.3299 123.472 20.4469C123.35 20.3421 123.166 20.3421 123.044 20.4469L120.767 22.4975L120.749 22.4887Z" fill="#1A335B"/>
<path d="M156.691 51.9388C156.238 51.9126 155.758 51.7555 155.269 51.4501C153.681 50.4553 152.285 48.0557 152.503 46.7032C152.643 45.8132 153.105 45.1151 153.55 44.4345C153.838 43.9982 154.1 43.5968 154.266 43.1517C154.955 41.3717 155.723 39.068 155.54 37.0261C155.531 36.9127 155.522 36.7469 155.513 36.5375C155.479 35.4991 155.391 34.9232 155.295 34.6091C155.121 35.1413 155.007 35.7173 154.876 36.3193C154.554 37.8987 154.205 39.5218 152.896 40.6998C150.932 42.4624 148.707 42.2617 146.561 42.0697C145.828 41.9999 145.077 41.9388 144.362 41.9563C144.187 41.9563 144.091 41.965 144.039 41.9737L144.013 42.0348C143.943 42.1657 143.856 42.349 143.69 42.5846C143.603 42.7067 143.507 42.8551 143.411 43.0209C143.035 43.6317 142.573 44.3908 141.822 44.5479C141.561 44.6003 141.159 44.6003 140.706 44.2774C138.934 43.0383 139.877 39.8097 140.391 38.6666C140.732 37.9075 141.212 37.1396 142.372 36.6858C143.419 36.2844 144.24 36.6771 144.903 36.9912C145.243 37.157 145.566 37.3054 145.898 37.3577C146.779 37.4886 147.957 37.3839 148.611 36.6771C149.144 36.1099 149.091 35.5427 148.943 34.6003C148.891 34.2775 148.838 33.9546 148.821 33.5969C148.803 33.2565 149.065 32.9686 149.405 32.9511C149.754 32.925 150.034 33.1955 150.051 33.5358C150.069 33.8325 150.121 34.1291 150.164 34.4171C150.313 35.3944 150.487 36.4939 149.519 37.5322C148.672 38.4397 147.25 38.8324 145.714 38.5968C145.199 38.5183 144.763 38.3089 144.379 38.1256C143.733 37.8202 143.35 37.6544 142.817 37.8551C142.11 38.1343 141.805 38.5357 141.517 39.1902C140.932 40.4816 140.557 42.6718 141.421 43.2739L141.578 43.3437C141.796 43.3001 142.163 42.7067 142.355 42.3839C142.468 42.2006 142.582 42.0174 142.678 41.869C142.791 41.712 142.852 41.5898 142.896 41.4938C143.184 40.9179 143.507 40.7434 144.336 40.7259C145.121 40.7085 145.906 40.7783 146.674 40.8481C148.646 41.0313 150.505 41.1971 152.067 39.7923C153.088 38.876 153.367 37.5148 153.664 36.0837C153.856 35.1675 154.056 34.2251 154.458 33.3787C154.545 33.1955 154.728 33.0646 154.938 33.0297C155.295 32.986 155.636 33.082 155.906 33.3089C156.604 33.9023 156.7 35.2199 156.744 36.5113C156.744 36.6858 156.753 36.8254 156.761 36.9214C156.971 39.2251 156.15 41.7032 155.409 43.6142C155.191 44.1727 154.876 44.6526 154.571 45.1238C154.187 45.7172 153.821 46.2844 153.716 46.9039C153.603 47.6369 154.632 49.6002 155.924 50.4117C156.761 50.9353 157.171 50.6473 157.311 50.5426C157.398 50.4815 157.39 50.2197 156.91 49.2424C156.831 49.0854 156.761 48.937 156.709 48.8149C155.976 47.0784 156.787 45.2983 157.372 44.0069C157.651 43.3961 160.138 37.794 160.435 31.9564C160.452 31.7208 160.775 26.5376 156.369 24.1641C156.212 24.0769 156.098 23.9285 156.054 23.754C156.011 23.5795 156.054 23.3962 156.159 23.2566L157.939 20.8657L155.016 21.4416C154.772 21.4853 154.527 21.3893 154.388 21.1886L152.695 18.7628L152.311 21.7209C152.285 21.9565 152.11 22.1572 151.883 22.227L149.074 23.1083L151.744 24.3735C151.962 24.4695 152.102 24.6964 152.102 24.932V27.8726L153.821 25.9704L153.882 25.9093C154.562 25.3421 155.182 25.281 155.583 25.3421C156.473 25.4556 156.997 26.1798 157.058 26.2671C158.027 27.384 157.154 28.9198 156.482 29.644C152.608 33.7539 147.87 31.555 147.372 31.3019C145.025 30.377 143.446 28.4137 143.027 25.9006C142.573 23.1868 143.611 20.316 145.653 18.5883C146.29 18.0473 146.971 17.5586 147.643 17.0874C148.55 16.433 149.414 15.8134 150.173 15.0717L150.234 15.0106C150.636 14.6267 151.299 13.9897 151.386 13.5098C151.447 13.1433 151.281 12.6895 151.098 12.2183C151.002 11.9653 150.906 11.721 150.845 11.4766C150.496 10.1677 150.025 8.3702 151.569 7.0264C152.486 6.22362 153.742 6.05783 154.929 6.57266C156.212 7.13111 157.084 8.3702 157.11 9.64418C157.137 10.351 156.927 10.9967 156.726 11.625C156.648 11.8693 156.569 12.1223 156.5 12.3667C156.482 12.4278 156.185 13.3352 156.596 14.0595C156.857 14.5133 157.372 14.8274 158.14 14.9932C158.14 14.9932 159.143 15.1677 159.911 14.522C160.592 13.9461 160.924 12.8815 160.906 11.3545C160.906 11.1799 161.098 8.3702 162.25 6.85189C162.311 6.7559 163.184 5.42956 166.264 4.05086C166.334 4.02468 169.562 2.74197 169.3 0.717558C169.257 0.377247 169.492 0.0718392 169.833 0.0282095C170.173 -0.0154201 170.478 0.22018 170.522 0.560491C170.915 3.54476 166.901 5.12415 166.735 5.19396C164.03 6.41559 163.262 7.54996 163.253 7.56741C162.302 8.82395 162.128 11.3632 162.128 11.3894C162.154 13.2654 161.674 14.6616 160.688 15.4906C159.458 16.5115 157.948 16.2323 157.887 16.2148C156.753 15.9792 155.95 15.4556 155.505 14.6703C154.824 13.4574 155.287 12.0874 155.313 12.0264C155.365 11.8082 155.452 11.5377 155.531 11.2672C155.714 10.7175 155.88 10.1939 155.863 9.69654C155.845 8.88503 155.26 8.09097 154.414 7.72448C154.056 7.56741 153.149 7.28818 152.363 7.9688C151.465 8.75414 151.639 9.74889 152.023 11.1712C152.075 11.3719 152.154 11.5726 152.233 11.782C152.451 12.3667 152.704 13.0298 152.582 13.7279C152.433 14.6092 151.648 15.3597 151.072 15.9094L151.011 15.9705C150.173 16.7733 149.24 17.4452 148.341 18.0996C147.695 18.5621 147.041 19.042 146.43 19.5481C144.711 20.9966 143.847 23.4224 144.231 25.7173C144.58 27.7941 145.889 29.4259 147.835 30.185L147.904 30.2199C148.07 30.3159 152.154 32.445 155.566 28.8325C155.566 28.8325 156.595 27.6719 156.072 27.0524C155.959 26.9041 155.705 26.6336 155.409 26.5987C155.191 26.5725 154.964 26.6685 154.711 26.8692L151.945 29.9232C151.77 30.1152 151.508 30.1763 151.264 30.089C151.028 29.993 150.871 29.7662 150.871 29.5044V25.3596L147.137 23.5882C146.91 23.4835 146.761 23.2479 146.779 22.9861C146.796 22.7331 146.971 22.5149 147.206 22.4364L151.142 21.206L151.674 17.0525C151.709 16.7907 151.892 16.59 152.137 16.5289C152.381 16.4679 152.643 16.5638 152.791 16.7733L155.173 20.1764L159.283 19.3561C159.536 19.3125 159.789 19.4172 159.929 19.6354C160.06 19.8535 160.051 20.1327 159.903 20.3422L157.564 23.4661C162.049 26.3456 161.691 31.8168 161.674 32.0611C161.36 38.1169 158.794 43.9109 158.498 44.5479C157.974 45.6997 157.328 47.122 157.852 48.3699C157.896 48.4746 157.948 48.5967 158.018 48.7276C158.384 49.4693 159.065 50.8567 158.018 51.5897C157.616 51.8689 157.163 51.9998 156.691 51.9737V51.9388Z" fill="#00A0E9"/>
</svg>
